<?xml version="1.0" encoding="UTF-8" standalone="no"?>
<!-- Created with Inkscape (http://www.inkscape.org/) -->

<svg
   width="32mm"
   height="32mm"
   viewBox="0 0 32 32"
   version="1.1"
   id="svg1"
   xml:space="preserve"
   inkscape:version="1.4.4 (dcaf3e7d9e, 2026-05-05)"
   sodipodi:docname="favicon.svg"
   xmlns:inkscape="http://www.inkscape.org/namespaces/inkscape"
   xmlns:sodipodi="http://sodipodi.sourceforge.net/DTD/sodipodi-0.dtd"
   xmlns="http://www.w3.org/2000/svg"
   xmlns:svg="http://www.w3.org/2000/svg"><sodipodi:namedview
     id="namedview1"
     pagecolor="#ffffff"
     bordercolor="#000000"
     borderopacity="0.25"
     inkscape:showpageshadow="2"
     inkscape:pageopacity="0.0"
     inkscape:pagecheckerboard="0"
     inkscape:deskcolor="#d1d1d1"
     inkscape:document-units="mm"
     inkscape:zoom="5.8406941"
     inkscape:cx="76.018363"
     inkscape:cy="66.344855"
     inkscape:window-width="1720"
     inkscape:window-height="1368"
     inkscape:window-x="0"
     inkscape:window-y="0"
     inkscape:window-maximized="0"
     inkscape:current-layer="layer1" /><defs
     id="defs1" /><g
     inkscape:label="Layer 1"
     inkscape:groupmode="layer"
     id="layer1"><path
       style="fill:#bba635;fill-opacity:1"
       d="M 15.64569,30.705014 C 15.451662,30.642453 14.423019,30.322337 13.359816,29.993645 12.296614,29.664953 10.969879,29.070724 10.411517,28.673135 9.5435018,28.055053 9.4242159,27.778302 9.5887663,26.764297 9.7576222,25.72376 9.6562782,25.513739 8.7622234,25.051405 7.3215142,24.306386 6.543058,24.393544 5.591523,25.406407 4.2722947,26.810661 3.6032273,26.56089 2.9927827,24.436268 1.1382873,17.981787 0.92110473,14.526324 2.1164445,10.493373 L 2.8769338,7.9275619 2.0758049,7.0747993 1.274676,6.2220367 2.0155547,5.0544996 C 2.423038,4.4123542 2.8899367,3.685003 3.0531074,3.4381638 3.286485,3.0851176 3.6948123,3.1419887 4.9669643,3.704722 5.856415,4.0981683 7.5597256,4.522047 8.7520991,4.6466747 10.689928,4.849218 10.974573,4.7954295 11.433695,4.1399406 c 0.814922,-1.1634641 3.81169,-1.595706 9.670859,-1.394886 3.527052,0.1208879 5.635399,0.3601805 6.763521,0.7676442 l 1.639052,0.5920057 0.203726,5.7119622 c 0.112049,3.1415793 0.277395,8.6109703 0.367435,12.1542023 l 0.16371,6.44224 -1.378367,0.703191 c -2.405632,1.227261 -5.220372,1.759722 -9.146921,1.730311 -2.045033,-0.01532 -3.876993,-0.07904 -4.07102,-0.141597 z M 9.939011,19.497379 c 0.104853,-0.436563 0.300544,-2.786773 0.434867,-5.22269 L 10.618103,9.8457492 9.1137205,9.3950254 C 6.841856,8.7143582 6.2889318,9.4384183 5.8270104,13.699007 5.4061639,17.580735 5.716067,19.183423 7.014554,19.84048 8.440433,20.562 9.7193483,20.411956 9.939011,19.497379 Z M 25.417909,5.0551053 C 27.190634,4.6574451 27.2326,4.6231003 26.229023,4.3912886 24.805013,4.062363 16.562897,4.0015087 15.072426,4.3089157 L 13.881801,4.55448 15.292912,4.9873597 c 1.836362,0.5633318 7.739649,0.6028302 10.124997,0.067746 z"
       id="path1" /></g></svg>
